<svg xmlns="http://www.w3.org/2000/svg" width="24" height="24" fill="none"><path d="M17.92 17.16c0 .45-.36.81-.81.81H7.69a.81.81 0 0 1-.81-.81v-8.4c2.47-.02 8.22-.02 11.04 0v8.4ZM10.37 4.44c.04.1 0 .2-.08.25-.1.05-.21.01-.26-.08L8.84 2.3a.19.19 0 0 1 .34-.17l1.19 2.32Zm4.33.1a.19.19 0 0 1-.26.07.19.19 0 0 1-.06-.26l1.3-2.26a.19.19 0 0 1 .25-.06c.1.05.13.16.07.25l-1.3 2.26Zm6.1 10.34a1.18 1.18 0 1 1-2.38 0V9.69a1.18 1.18 0 1 1 2.37 0v5.19Zm-14.43 0a1.19 1.19 0 0 1-2.37 0V9.69a1.18 1.18 0 1 1 2.37 0v5.19Z" fill="#000"/><path d="M11.53 20.82a1.19 1.19 0 0 1-2.37 0v-5.2a1.19 1.19 0 1 1 2.37 0v5.2Zm4.11 0a1.19 1.19 0 0 1-2.37 0v-5.2a1.19 1.19 0 0 1 2.37 0v5.2ZM12.4 3.21a5.63 5.63 0 0 0-5.57 5.01h11.14a5.63 5.63 0 0 0-5.57-5.01ZM9.88 6.25a.46.46 0 1 1 0-.93.46.46 0 0 1 0 .93Zm5.04 0a.46.46 0 1 1 0-.93.46.46 0 0 1 0 .93Z" fill="#000"/></svg>