<svg fill="none" height="24" width="25" xmlns="http://www.w3.org/2000/svg"><path d="M18.137 15.675c-.847-.75-1.877-1.613-3.33-3.675-.932-1.323-1.756-2-2.967-2-1.332 0-2.058.625-2.776 1.64-1.05 1.485-1.462 1.985-2.544 2.837-.393.31-2.43 1.586-2.43 3.836C4.09 20.938 5.967 22 7.668 22c2.234 0 2.72-.5 4.172-.5 1.817 0 2.785.5 4.238.5 2.907 0 3.512-2.188 3.512-3.564 0-1.311-.605-2.011-1.453-2.761zM5.785 12.443c1.562-.347 1.808-1.87 1.805-2.866 0-.348-.032-.632-.048-.78-.099-.838-1.013-2.274-2.275-2.296a1.727 1.727 0 0 0-.183.006C3.378 6.664 3.13 9.213 3.13 9.213a2.399 2.399 0 0 0-.04.482c.016 1.131.679 2.763 2.138 2.805.175.004.36-.013.558-.057zM9.842 8c1.243 0 2.248-1.343 2.248-3.001S11.085 2 9.842 2C8.598 2 7.59 3.34 7.59 4.999S8.598 8 9.842 8zm5.01.482c.11.015.217.02.322.017 1.348-.052 2.208-1.639 2.39-2.862a2.23 2.23 0 0 0 .026-.366c-.007-1.221-.915-2.506-1.9-2.745-1.088-.266-2.446 1.586-2.568 2.795-.019.185-.03.369-.032.551-.012 1.276.42 2.428 1.761 2.61zm6.23 2.089c0-.64-.502-2.571-2.37-2.571-1.874 0-2.122 1.822-2.122 3.11 0 1.205.094 2.876 2.29 2.89a4 4 0 0 0 .133-.001c2.013-.047 2.091-2.102 2.076-3.069-.002-.15-.007-.273-.007-.359z" fill="#1565c0"/><path d="M12.09 15.5v3.75s0 .938 1.313 1.25h3.187v-5h-1.312v3.75h-1.375s-.438-.063-.5-.375V15.5zm-2-2v2h-1.5a2.442 2.442 0 0 0-2 2.438V18c0 1.375.938 2.313 2 2.5h2.813v-7zm0 5.875H8.903c-.375 0-1-.563-1-1.375s.625-1.375 1-1.375h1.187z" fill="#fff"/></svg>