<svg fill="none" height="24" width="25" xmlns="http://www.w3.org/2000/svg"><path d="M20.96 12.44c0-1.45-.4-2.82-1.07-4.01 2.93-6.32-3.1-5.38-3.46-5.38a16 16 0 0 0-3.55 1.1c-4.08-.04-7.63 2.06-8.79 6.4 2.13-2.3 3.64-3.23 4.53-3.58l-.56.5a25.54 25.54 0 0 0-3.55 4.19c-.76 1.28-1.6 2.39-2.04 3.84-2.4 8.36 5.15 4.86 6.21 4.27 1.15.54 2.4.84 3.82.84 3.72 0 6.92-2.3 8.07-5.46h-4.52c-2.13 3.24-7.2 1.8-7.37-1.7h12.25c.05-.36.07-.7.07-1.03zm-1.6-8.11c.73.48 1.33 1.2.3 3.75a7.94 7.94 0 0 0-4.16-3.32c.79-.37 2.75-1.11 3.9-.43zM3.65 19.78c-.6-.6-.71-2.05.62-4.7A8.16 8.16 0 0 0 8 19.43c-.86.46-3.1 1.45-4.35.29zm4.97-8.54c.07-1.88 1.77-3.41 3.9-3.41s3.82 1.53 3.9 3.41z" fill="#1ebbee"/></svg>