<svg xmlns="http://www.w3.org/2000/svg" width="10" height="9" fill="none"><path fill-rule="evenodd" clip-rule="evenodd" d="M9.6 1.73c-.33.14-.7.24-1.08.28.39-.22.69-.58.83-1.01-.37.2-.77.36-1.2.44A1.92 1.92 0 0 0 6.77.86a1.86 1.86 0 0 0-1.84 2.26 5.42 5.42 0 0 1-3.9-1.92 1.8 1.8 0 0 0 .59 2.45c-.31 0-.6-.1-.86-.23v.02c0 .9.65 1.64 1.52 1.8a1.97 1.97 0 0 1-.86.03c.24.73.94 1.26 1.77 1.28a3.86 3.86 0 0 1-2.8.76c.84.52 1.83.83 2.9.83a5.26 5.26 0 0 0 5.37-5.47c.37-.25.7-.58.94-.95Z" fill="#fff"/></svg>