<svg xmlns="http://www.w3.org/2000/svg" width="32" height="32" fill="none"><circle cx="16" cy="16" r="16" fill="#FFD539"/><path d="M25.91 15.8c-2.39 1.98-7.13 2.65-9.36 2.81l-3.1-6.8c2.17-2.51 6.67-6.66 7.3-3.1.64 3.57 3.77 5.2 5.26 5.5l-.1 1.58Z" fill="#fff"/><path fill-rule="evenodd" clip-rule="evenodd" d="M21.14 8.65a2.46 2.46 0 0 0-.5-1.18c-.25-.3-.57-.46-.94-.51-.68-.1-1.47.23-2.22.7a21.17 21.17 0 0 0-4.32 3.9l-.16.19 3.31 7.27.27-.02a22.1 22.1 0 0 0 9.58-2.9l.12-.1c.89-.65 1.83-2 .57-2.72-.56-.32-1.18-.06-1.58.3a6.67 6.67 0 0 1-4.13-4.93Zm3.71 5.6a7.41 7.41 0 0 1-4.48-5.47 1.7 1.7 0 0 0-.32-.8.68.68 0 0 0-.45-.25c-.4-.05-.99.14-1.72.59-1.35.83-2.9 2.34-3.97 3.56l2.88 6.32c2.75-.23 5.68-.76 8.29-2.32.17-.1.3-.25.38-.4a.82.82 0 0 0-.36-1.13 6.76 6.76 0 0 1-.25-.1Z" fill="#1E1E1E"/><ellipse cx="20.03" cy="12.77" rx="1.36" ry="1.35" transform="rotate(-23.13 20.03 12.77)" fill="#1E1E1E"/><ellipse cx="20.23" cy="11.86" rx=".55" ry=".65" transform="rotate(-23.13 20.23 11.86)" fill="#fff"/><path d="M17.32 14.37c0 6.28 6.16 7.73 9.43 6.15-.37 1.49-1.71 2.75-3.88 3.17-.04.65.7 2.11 1.36 2.69-1.5.56-3.22-.2-4.17-.8-.36.52-.52 2.09-.52 3.07-1.13 0-2.6-1.63-2.97-2.25-.52.3-1.43 1.9-1.6 2.83a3.88 3.88 0 0 1-1.84-3.3c-.64.45-2.46 1.56-3.3 1.94-.42-.96-.25-2.15 0-3.38-.36.19-2.98.43-4.03.19.53-.6 1.24-1.95 1.56-2.58a7.4 7.4 0 0 1-4.03-1.74c.8-.36 1.6-.88 2.47-1.75-1.11-.6-2.8-1.48-3.2-3.02 1.03-.07 2.3-.22 2.96-.52-.84-.49-2.23-2.03-1.95-3.89.7.34 2.16.6 2.87.47-.62-1.36-1.03-2.68-.42-4.5A7.4 7.4 0 0 0 8.52 8.8C8.38 7.46 9 4.99 9.83 4.33c.35.76 1.22 2 1.8 2.3.15-1 1.45-3.37 2.6-3.69 0 .82.45 2.3.82 2.75.86-.9 3.75-2.37 6.04-1.86-.71.74-1.23 1-1.42 1.6 1.74 0 4.6.56 7.08 3.17-3.88-1.45-9.43.92-9.43 5.77Z" fill="#1E1E1E"/></svg>