<svg xmlns="http://www.w3.org/2000/svg" width="17" height="16" fill="none"><path d="M15.8 4.02 8.85 0v2.78l6.93 4V4.03Z" fill="#FF6492"/><path d="M15.8 6.79 13.7 8 8.86 5.19l-2.78 1.6L4 5.66l4.86-2.88 6.93 4Z" fill="#141446"/><path d="M6.08 6.79 4 5.66V8l2.08-1.21Z" fill="#A14474"/><path d="M1.92 11.98 8.86 8l6.93 3.98L8.86 16l-6.94-4.02Z" fill="#141446"/><path d="M15.79 9.22 8.86 5.15V8l6.93 3.98V9.22Z" fill="#FF6492"/><path d="M4 8V5.66l4.86-2.88V0L1.92 4.02v7.96L8.86 8V5.15L4 8Z" fill="#7A77FF"/></svg>