<svg xmlns="http://www.w3.org/2000/svg" width="352" height="293" fill="none"><path d="m194.2 174.1 44.9 25.9c2.1 1.2 2.8 3.8 1.6 5.9a4.28 4.28 0 0 1-5.9 1.6l-44.9-26a4.28 4.28 0 0 1-1.6-5.9c1.2-2 3.9-2.7 5.9-1.5Z" fill="#3E1D16"/><path d="M123.2 2.7c-1.1 1.2 6.3 10.4 6.3 10.4s-23-13.2-25.1-10.4c-1.1 1.5 4.2 8.4 4.2 8.4s-25-10-27.1-6.3c-1.4 2.4 6.3 10.4 6.3 10.4-28.8-2.1-29.2 0-29.2 0s3 1.3 8.8 3.9c-7.7 2.2-13.1 5-16.7 7.3-4.1 2.6-11 7.6-10.9 7.6.7 1.9 12.5 0 12.5 0-28.4 25.4-27.2 27.2-27.2 27.2 1 1.5 10.4-2.1 10.4-2.1L18.8 80c1 1.3 8.3-2.1 8.3-2.1-20.5 36.2-18.7 37.6-18.7 37.6 1.6 1.2 10.4-6.3 10.4-6.3C7 135.5 8.4 136.3 8.4 136.3c1.4.9 8.4-6.3 8.4-6.3s-7.1 34.6-4.2 35.5c3.3 1 8.2-11.2 6.3-8.4 0-.1-.5 39.1 4.2 39.7 2.2.3 6.3-8.4 6.3-8.4s5.8 25.4 8.3 25.1c0 0 .4-.1 2.1-8.4 17.8 27.7 18.8 27.1 18.8 27.1s.4-.2-2.1-8.4c23.6 20.1 25 18.8 25 18.8s.7-.6-4.2-12.5c0 0 27.2 19.1 29.2 16.7 0 0 .4-.5-6.3-10.4 0 0 29.1 14 31.3 10.4 1.1-1.8-4.2-8.4-4.2-8.4 62.1-60 75.1-96 75.1-96 2.7-7.6 6.2-20 4.2-20.9-1.4-.6-6.3 4.2-6.3 4.2s7.3-23.6 4.2-25.1c0 0-.4-.2-6.3 4.2 0 0 5.4-28.2 2.1-29.2-1.7-.5-6.3 6.3-6.3 6.3s-4.4-39.8-6.3-39.7c-1.1.1-.7 12.4-2.1 12.5-.7 0-1.4-3.4-2.1-6.3-2.9-12.4-8.3-25.4-10.4-25-1.6.3-2.1 8.4-2.1 8.4s-18-24.6-20.9-23c-1.8 1 2.1 12.5 2.1 12.5-27.9-19.8-29-18.6-29-18.6Z" fill="#804A33"/><path d="M255.1 249c0 1.1.1 14.7 8.9 19.5 2.8 1.5 5.6 1.7 10 2 3.9.3 7.8.5 12-1 8-2.9 11.7-10.3 12-11 4.4-9.3 1.3-21-6-27-5.1-4.2-11.2-4.8-14-5-3.2-.3-8.2-.7-13 2-9.6 5.4-9.8 18.8-9.9 20.5Z" fill="#543530"/><path d="M250.5 249c.2 10.6 8.6 20.3 19.5 21.4 9.2.9 17.9-4.5 21.4-12.1 5.6-12.4-3.1-29.9-16.7-31.6-11.8-1.5-24.4 9.1-24.2 22.3Z" fill="#3E1D16"/><path d="M162.9 226.1c6.1 11.3 11.4 23 15.9 35.1 2.1-1.9 5-3.1 7.8-2.7 2.8.4 5.4 2.8 5.5 5.6 0 .6-.1 1.3-.5 1.9-.4.5-1 .8-1.6 1.1l-10.6 5c-1.6.8-3.4 1.5-5.1 1-2-.6-3.1-2.6-4-4.5-4.9-10.1-9.8-20.3-14.7-30.4-1.1-2.4-2.3-4.8-2.4-7.5-.1-2.7 1.4-5.5 3.9-6.2 3-.9 6 1.5 7.4 4.3m-31.2-102.2c1.5.5 2.7 1.4 3.6 2.7 2.4 3.4 8.6 11.8 17 19 9.2 8 19.4 14.7 26.7 17.9 3.5 1.5 7.2 3 19.7 8.5.8.4 2.7 1.2 2.8 2.5 0 .4-.1.9-.5 1.1-.4.2-1-.2-2.2-.9 1.3 1 1.6 2.4 1.1 3.1-.4.5-1.1.6-1.4.6 0 0-.8 0-2.2-.9.6.4.8 1.1.6 1.6-.3.6-1.3.7-1.6.6-1.1-.5-2-.9-2.2-.9-10.6-3.4-20.4-8.3-27.8-11.9-5.7-2.7-14.1-8.4-18.8-12.6-9.3-8.5-16-16.9-19.2-21.1-1.6-2.2-2-5.1-.8-7.5.4-.8.9-1.4 1.6-1.7 1.2-.6 2.5-.4 3.6-.1Z" fill="#EAC1A2"/><path d="M118.5 46.6c2.6-8 1.4-19.2-3.7-21.2-2.9-1.1-6.6.9-8.5 2.8-9.3 9.1-1.8 33.7-1.8 33.7 2.7-1.3 10.9-5.9 14-15.3Z" fill="#FADDB6"/><path d="M110.2 50.6c-1-3.6-1.4-6.6-1.5-8.7-.3-4.5-.4-8 2-10.6.5-.6 2.2-2.3 3.5-1.9 3.6 1.2 1.8 17.2 1.8 17.7" fill="#F8AB87"/><path d="M161.4 51.6c3.9-7.5 5.7-19.4 2.2-22.7-1.9-1.9-5.2-.8-7.1.6-9.3 6.9-9.4 34.1-9.4 34.2 2.3-.7 9.7-3.2 14.3-12.1Z" fill="#FADDB6"/><path d="M154.2 53.6c.1-3.9.5-7.1.9-9.3.9-4.6 1.6-8.4 4.1-10.4.5-.4 2.2-1.8 3.1-1 2.4 2.1-2.8 18.2-2.9 18.6" fill="#F8AB87"/><path d="M77.3 108.1c-21.1 41-20.3 84.6 2.2 109.4 13.6 15 31.4 18.9 35 19.7 29.1 5.9 61.2-9.1 74.4-32.8 8.3-14.9 4.8-36.2-2.2-78.8-1-6-5-20-13.1-48.1-3.7-12.7-5.9-20.1-13.1-26.2-9.9-8.4-22.3-8.7-26.2-8.8-3.2-.1-17-.3-28.4 8.8-5.2 4.1-7.5 8.2-21.9 41.6-2.8 6.1-5 11.3-6.7 15.2Z" fill="#FADDB6"/><path d="M116.6 106.9a7.7 7.7 0 1 0 0-15.4 7.7 7.7 0 0 0 0 15.4Zm55.9-1.2a7.7 7.7 0 1 0 0-15.4 7.7 7.7 0 0 0 0 15.4Z" fill="#F29483"/><path d="M144.7 81.9c-8.2 1.2-16 10.2-14.3 18.1 1.6 7.2 10.4 10.6 16.7 10.3 7.4-.3 16.2-5.6 16.7-12.9.6-8.2-9.6-16.9-19.1-15.5Z" fill="#C89983"/><path d="M152.9 101.6c3.64 0 6.6-2.46 6.6-5.5s-2.96-5.5-6.6-5.5c-3.65 0-6.6 2.46-6.6 5.5s2.95 5.5 6.6 5.5Z" fill="#6F473D"/><path d="M169.2 88.4c2.27 0 4.1-2.2 4.1-4.9s-1.83-4.9-4.1-4.9c-2.26 0-4.1 2.2-4.1 4.9s1.84 4.9 4.1 4.9Z" fill="#3E1D16"/><path d="M139.6 80.8c-2.6-1.4-4-4.6-3.3-7.4 2 2 3.1 4.6 3.3 7.4Zm3.5-4.1a6.86 6.86 0 0 1-1.5-8c1.4 2.5 1.9 5.2 1.5 8Zm-2.2-13.1a6.86 6.86 0 0 1-1.5-8c1.4 2.5 1.9 5.1 1.5 8Zm-2.2-11a6.86 6.86 0 0 1-1.5-8c1.4 2.5 1.9 5.2 1.5 8Zm8.4 17.7c-2-2.1-2.4-5.6-.8-8.1 1.2 2.7 1.5 5.4.8 8.1Zm-1.3-13.2a6.76 6.76 0 0 1-.5-8.1c1.1 2.6 1.2 5.3.5 8.1Zm3.8-3a6.75 6.75 0 0 1-.1-8.1c.9 2.6 1 5.4.1 8.1Zm1.2 9.5c-1.6-2.4-1.3-5.9.7-8.1.6 2.8.4 5.5-.7 8.1Zm4.1-6.8c-1.6-2.4-1.3-5.9.7-8.1.7 2.8.5 5.6-.7 8.1Zm-2 17.7c-1.6-2.4-1.3-5.9.7-8.1.7 2.8.5 5.6-.7 8.1Zm-4.3 4.6c-1.6-2.4-1.3-5.9.7-8.1.7 2.8.4 5.5-.7 8.1Zm-11.2-9.3c-2.6-1.4-4-4.6-3.3-7.4 2 2.1 3.1 4.6 3.3 7.4Zm-6.5-6.5c-2.6-1.4-4-4.6-3.3-7.4 1.9 2 3 4.6 3.3 7.4Zm4.3-4.4c-2.6-1.4-4-4.6-3.3-7.4 2 2.1 3.1 4.6 3.3 7.4Zm-2-9c-2.6-1.4-4-4.6-3.3-7.4 2 2.1 3.1 4.6 3.3 7.4Zm-6.7 4.6c-2.6-1.4-4-4.6-3.3-7.4 1.9 2.1 3 4.6 3.3 7.4Z" fill="#D5A78D"/><path d="M126.3 69.1c-1.8-1.2-4.8.6-4.9 1.8 0 .5.5.9 1 1.3 1.3.9 3.7 1.6 4.6.5.8-.9.4-2.8-.7-3.6Zm34.4.4c1.4-1.6 4.8-.6 5.2.6.1.5-.3 1-.7 1.5-1 1.2-3.2 2.5-4.4 1.6-.9-.7-.9-2.6-.1-3.7Z" fill="#C89983"/><path d="m145.1 175.7 75 43.3c2.1 1.2 2.8 3.8 1.6 5.9a4.28 4.28 0 0 1-5.9 1.6l-75-43.3a4.28 4.28 0 0 1-1.6-5.9 4.3 4.3 0 0 1 5.9-1.6Z" fill="#3E1D16"/><path d="M297.2 122.4c-13.5-1.9-26 7.4-27.9 20.9A24.65 24.65 0 0 0 289 171c.4.1.8.1 1.2.2 6.2.9 12.3-.6 17.1-3.9-3.1 1.5-6.6 2.1-10.2 1.6-5.8-.8-10.6-4.5-13.5-9.5-2.2-3.6-3.3-8.5-2.7-13.8l.2-1.1c.9-5.3 3.3-9.7 6.5-12.5 4.1-4 9.8-6.2 15.6-5.4 3.6.5 6.8 2.1 9.4 4.4-3.8-4.5-9.1-7.7-15.4-8.6Z" fill="url(#a)"/><path d="M287.6 131.9c2.6-2.3 5.7-3.5 8.9-3.1 7.1 1 11.7 9.9 10.3 19.8-1.4 9.9-8.3 17.2-15.4 16.1-3.2-.4-5.8-2.5-7.7-5.4 2.9 5.1 7.6 8.7 13.5 9.5 3.6.5 7.1-.1 10.2-1.6 5.6-3.8 9.7-9.8 10.8-17 1-7.2-1.2-14.2-5.5-19.4-2.6-2.3-5.8-3.9-9.4-4.4-5.9-.7-11.5 1.5-15.7 5.5Z" fill="url(#b)"/><path d="M273.6 143.1c-.2.7-.5 1.3-.8 2-1 2-2.4 3.9-4 5.4-6.4 6-16 6.9-21.4 1.3-.7-.8-1.2-1.7-1.4-2.7-.2-1-.2-2.1.1-3.1-5.5 5.7-1.3 13.1 2 16.6 9.4 10 19.5 2.3 21.5.4 1.1-1 2.4-2.8 3-4.1l.1-.2c2.5-4.8 3.3-10.3 2.2-15.6 0-.2-.1-.3-.2-.4-.1-.1-.3-.2-.4-.2-.2 0-.3 0-.5.1 0 .2-.1.3-.2.5Z" fill="url(#c)"/><path opacity=".35" d="M273.6 143.1c-.2.7-.5 1.3-.8 2-1 2-2.4 3.9-4 5.4-6.4 6-16 6.9-21.4 1.3-.7-.8-1.2-1.7-1.4-2.7-.2-1-.2-2.1.1-3.1-5.5 5.7-1.3 13.1 2 16.6 9.4 10 19.5 2.3 21.5.4 1.1-1 2.4-2.8 3-4.1l.1-.2c2.5-4.8 3.3-10.3 2.2-15.6 0-.2-.1-.3-.2-.4-.1-.1-.3-.2-.4-.2-.2 0-.3 0-.5.1 0 .2-.1.3-.2.5Z" fill="url(#d)"/><path d="M263.2 165.9c-1.9.4-3.9.4-5.8 0-2.1-.4-4.2-1.3-6-2.5-1.8-1.3-3.3-2.9-4.3-4.8-1.1-1.9-1.7-4-1.9-6.2-.2-2.2.1-4.4.9-6.4.2-.6.6-1.6 1.6-2.5.7-.6 1.5-1.1 2.4-1.4.9-.3 1.8-.3 2.7-.2 1.2.2 2.4.8 3.2 1.7 0 0-6.8-13.8-20.9-.5-5.9 5.6-5.5 15.8-.8 20.7 2.4 2.6 5.4 4.7 8.8 6 5.4 2.1 11.4 2.2 16.9.2 5.5-2 10-5.9 12.7-11.1-1 1.8-2.3 3.3-4 4.5-1.6 1.3-3.4 2.1-5.5 2.5Z" fill="url(#e)"/><path opacity=".41" d="M263.2 165.9c-1.9.4-3.9.4-5.8 0-2.1-.4-4.2-1.3-6-2.5-1.8-1.3-3.3-2.9-4.3-4.8-1.1-1.9-1.7-4-1.9-6.2-.2-2.2.1-4.4.9-6.4.2-.6.6-1.6 1.6-2.5.7-.6 1.5-1.1 2.4-1.4.9-.3 1.8-.3 2.7-.2 1.2.2 2.4.8 3.2 1.7 0 0-6.8-13.8-20.9-.5-5.9 5.6-5.5 15.8-.8 20.7 2.4 2.6 5.4 4.7 8.8 6 5.4 2.1 11.4 2.2 16.9.2 5.5-2 10-5.9 12.7-11.1-1 1.8-2.3 3.3-4 4.5-1.6 1.3-3.4 2.1-5.5 2.5Z" fill="url(#f)"/><path d="M257.8 147.5c0 .2-.1.8.3 1.2.3.4.9.5 1.6.4 3.2-.5 6.7-4.1 6.7-4.1 1.4-1.4 2.5-3.1 3-5 .6-1.9.6-3.9.1-5.9-.5-2-1.4-3.7-2.8-5.1-2.8-3.1-5.8-4-7.1-4.5-8.1-2.9-17.3-.2-24 6.1a23.84 23.84 0 0 0-1.2 33.3c-4.6-5-3.4-13.6 2.4-19.1.5-.4 3.2-2.9 6.9-4 2.6-.8 5.3-.8 7.9 0 2.2.6 4 2.3 4.7 3.1.7.8 1.3 2.1 1.5 3.6Z" fill="url(#g)"/><path d="M257.8 147.5c0 .2-.1.8.3 1.2.3.4.9.5 1.6.4 3.2-.5 6.7-4.1 6.7-4.1 1.4-1.4 2.5-3.1 3-5 .6-1.9.6-3.9.1-5.9-.5-2-1.4-3.7-2.8-5.1-2.8-3.1-5.8-4-7.1-4.5-8.1-2.9-17.3-.2-24 6.1a23.84 23.84 0 0 0-1.2 33.3c-4.6-5-3.4-13.6 2.4-19.1.5-.4 3.2-2.9 6.9-4 2.6-.8 5.3-.8 7.9 0 2.2.6 4 2.3 4.7 3.1.7.8 1.3 2.1 1.5 3.6Z" fill="url(#h)"/><path d="M342 176.4c0 6.6-2.6 13-7.3 17.6-4.7 4.6-11 7.3-17.6 7.3-6.6 0-13-2.6-17.6-7.3-4.6-4.7-7.3-11-7.3-17.6 0-6.6 2.6-13 7.3-17.6 4.7-4.6 11-7.3 17.6-7.3 6.6 0 13 2.6 17.6 7.3 4.6 4.7 7.3 11 7.3 17.6Z" fill="#119AFF"/><path d="M317 152.7c-.2 0-.4.2-.4.4v4.2c0 .2.2.4.4.4s.4-.2.4-.4v-4.2c0-.2-.2-.4-.4-.4Zm-2.4.2c-.3 0-.4.2-.4.4l.2 1.8c0 .2.2.4.4.3.2 0 .4-.2.3-.4l-.2-1.8c0-.1-.1-.3-.3-.3Zm4.8 0c-.2 0-.3.1-.3.3l-.2 1.8c0 .2.1.4.3.4.2 0 .4-.1.4-.3l.2-1.8c0-.2-.1-.4-.4-.4 0 0 .1 0 0 0Zm-7.2.4s-.1 0 0 0c-.3 0-.4.2-.4.4l.9 4.1c0 .2.2.3.4.3s.3-.2.3-.4l-.9-4.1c0-.2-.2-.4-.3-.3Zm9.7 0c-.2 0-.3.1-.4.3l-.9 4.1c0 .2.1.4.3.4.2 0 .4-.1.4-.3l.9-4.1c0-.2-.1-.4-.3-.4Zm-12 .6h-.1c-.2.1-.3.3-.2.5l.5 1.7c.1.2.3.3.5.2.2-.1.3-.3.2-.5l-.5-1.7c-.2-.1-.3-.2-.4-.2Zm14.3 0c-.1 0-.3.1-.3.2l-.5 1.7c-.1.2 0 .4.2.5.2.1.4 0 .5-.2l.5-1.7c.1-.2 0-.4-.2-.5h-.2Zm-16.7.8h-.1c-.2.1-.3.3-.2.5l1.7 3.8c.1.2.3.3.5.2.2-.1.3-.3.2-.5l-1.7-3.8c-.1-.1-.2-.2-.4-.2Zm19 .1c-.1 0-.3.1-.3.2l-1.7 3.8c-.1.2 0 .4.2.5.2.1.4 0 .5-.2l1.7-3.8c.1-.2 0-.4-.2-.5h-.2Zm-21.1 1.1c-.1 0-.1 0-.2.1-.2.1-.2.3-.1.5l.9 1.5c.1.2.3.2.5.1s.2-.3.1-.5l-.9-1.5c-.1-.2-.2-.2-.3-.2Zm23.2 0c-.1 0-.2.1-.3.2l-.9 1.5c-.1.2 0 .4.1.5.1.1.4 0 .5-.1l.9-1.5c.1-.2 0-.4-.1-.5 0-.1-.1-.1-.2-.1Zm-25.3 1.3c-.1 0-.1 0-.2.1-.2.1-.2.4-.1.5l2.5 3.4c.1.2.4.2.5.1.1-.1.2-.4.1-.5l-2.5-3.4c0-.2-.2-.2-.3-.2Zm27.4 0c-.1 0-.2.1-.3.1l-2.5 3.4c-.1.2-.1.4.1.5.2.1.4.1.5-.1l2.5-3.4c.1-.2.1-.4-.1-.5h-.2Zm-29.2 1.5c-.1 0-.2 0-.3.1-.1.1-.2.4 0 .5l1.2 1.3c.1.1.4.2.5 0 .1-.1.2-.4 0-.5l-1.2-1.3c-.1 0-.1-.1-.2-.1Zm31.1 0c-.1 0-.2.1-.2.1l-1.2 1.3c-.1.1-.1.4 0 .5.1.1.4.1.5 0l1.2-1.3c.1-.1.1-.4 0-.5-.1 0-.2-.1-.3-.1Zm-32.9 1.7c-.1 0-.2 0-.2.1-.1.1-.1.4 0 .5l3.1 2.8c.1.1.4.1.5 0 .1-.1.1-.4 0-.5l-3.1-2.8c-.1 0-.2-.1-.3-.1Zm34.7.1c-.1 0-.2 0-.3.1l-3.1 2.8c-.1.1-.2.4 0 .5.1.1.4.2.5 0l3.1-2.8c.1-.1.2-.4 0-.5-.1-.1-.1-.1-.2-.1Zm-36.2 1.8c-.1 0-.2.1-.3.1-.1.2-.1.4.1.5l1.4 1c.2.1.4.1.5-.1.1-.2.1-.4-.1-.5l-1.4-1c-.1.1-.1 0-.2 0Zm37.6.1c-.1 0-.1 0-.2.1l-1.4 1c-.2.1-.2.4-.1.5.1.2.4.2.5.1l1.4-1c.2-.1.2-.4.1-.5 0-.2-.1-.2-.3-.2Zm-39 2c-.1 0-.2.1-.3.2-.1.2 0 .4.1.5l3.6 2.1c.2.1.4 0 .5-.1.1-.1 0-.4-.1-.5l-3.6-2.1c0-.1-.1-.1-.2-.1Zm40.4 0c-.1 0-.1 0-.2.1l-3.6 2.1c-.2.1-.2.3-.1.5s.3.2.5.1l3.6-2.1c.2-.1.2-.3.1-.5s-.2-.2-.3-.2Zm-41.4 2.1c-.1 0-.3.1-.3.2-.1.2 0 .4.2.5l1.6.7c.2.1.4 0 .5-.2.1-.2 0-.4-.2-.5l-1.6-.7c-.1.1-.2.1-.2 0Zm42.5.1h-.1l-1.6.7c-.2.1-.3.3-.2.5.1.2.3.3.5.2l1.6-.7c.2-.1.3-.3.2-.5-.1-.2-.3-.3-.4-.2Zm-43.5 2.2c-.1 0-.3.1-.3.2-.1.2 0 .4.2.5l4 1.3c.2.1.4 0 .5-.2.1-.2 0-.4-.2-.5l-4-1.3h-.2Zm44.4 0h-.1l-4 1.3c-.2.1-.3.3-.2.5.1.2.3.3.5.2l4-1.3c.2-.1.3-.3.2-.5-.1-.1-.3-.2-.4-.2Zm-45 2.4c-.2 0-.3.1-.4.3 0 .2.1.4.3.4l1.7.4c.2 0 .4-.1.4-.3 0-.2-.1-.4-.3-.4l-1.7-.4c.1 0 .1 0 0 0Zm45.6 0s-.1 0 0 0l-1.8.3c-.2 0-.3.2-.3.4s.2.3.4.3l1.7-.4c.2 0 .3-.2.3-.4 0-.1-.2-.2-.3-.2Zm-46 2.4c-.2 0-.3.1-.3.3 0 .2.1.4.3.4l4.2.4c.2 0 .4-.1.4-.3 0-.2-.1-.4-.3-.4l-4.3-.4s.1 0 0 0Zm46.4 0-4.2.4c-.2 0-.4.2-.3.4 0 .2.2.4.4.3l4.2-.4c.2 0 .4-.2.3-.4-.1-.2-.2-.3-.4-.3Zm-46.5 2.4c-.2 0-.4.2-.4.4s.2.4.4.4h1.8c.2 0 .4-.2.4-.4s-.2-.4-.4-.4h-1.8Zm44.8 0c-.2 0-.4.2-.4.4s.2.4.4.4h1.8c.2 0 .4-.2.4-.4s-.2-.4-.4-.4h-1.8Zm-40.5 2-4.2.4c-.2 0-.4.2-.3.4 0 .2.2.4.4.3l4.2-.4c.2 0 .4-.2.3-.4-.1-.1-.2-.3-.4-.3Zm38 0c-.2 0-.3.1-.3.3 0 .2.1.4.3.4l4.2.4c.2 0 .4-.1.4-.3 0-.2-.1-.4-.3-.4l-4.3-.4Zm-40 2.5s-.1 0 0 0l-1.8.4c-.2 0-.3.2-.3.4s.2.3.4.3l1.7-.4c.2 0 .3-.2.3-.4s-.2-.3-.3-.3Zm42 0c-.2 0-.3.1-.4.3 0 .2.1.4.3.4l1.7.4c.2 0 .4-.1.4-.3 0-.2-.1-.4-.3-.4l-1.7-.4c.1 0 .1 0 0 0Zm-39.1 1.4h-.1l-4 1.3c-.2.1-.3.3-.2.5.1.2.3.3.5.2l4-1.3c.2-.1.3-.3.2-.5-.2-.1-.3-.2-.4-.2Zm36.2 0c-.1 0-.3.1-.3.2-.1.2 0 .4.2.5l4 1.3c.2.1.4 0 .5-.2.1-.2 0-.4-.2-.5l-4-1.3h-.2Zm-37.7 2.9h-.1l-1.6.7c-.2.1-.3.3-.2.5.1.2.3.3.5.2l1.6-.7c.2-.1.3-.3.2-.5-.2-.2-.3-.3-.4-.2Zm39.3 0c-.1 0-.3.1-.3.2-.1.2 0 .4.2.5l1.6.7c.2.1.4 0 .5-.2.1-.2 0-.4-.2-.5l-1.6-.7h-.2Zm-36.2.8c-.1 0-.1 0-.2.1l-3.6 2.1c-.2.1-.2.3-.1.5s.3.2.5.1l3.6-2.1c.2-.1.2-.3.1-.5s-.2-.2-.3-.2Zm33 0c-.1 0-.2.1-.3.2-.1.2 0 .4.1.5l3.6 2.1c.2.1.4 0 .5-.1.1-.1 0-.4-.1-.5l-3.6-2.1c0-.1-.1-.1-.2-.1Zm-33.9 3c-.1 0-.1 0-.2.1l-1.4 1c-.2.1-.2.4-.1.5.1.2.4.2.5.1l1.4-1c.2-.1.2-.4.1-.5-.1-.1-.2-.2-.3-.2Zm34.8 0c-.1 0-.2.1-.3.1-.1.2-.1.4.1.5l1.4 1c.2.1.4.1.5-.1.1-.2.1-.4-.1-.5l-1.4-1c0 .1-.1 0-.2 0Zm-31.6.2c-.1 0-.2 0-.3.1l-3.1 2.8c-.1.1-.2.4 0 .5.1.1.4.2.5 0l3.1-2.8c.1-.1.2-.4 0-.5 0-.1-.1-.1-.2-.1Zm28.4 0c-.1 0-.2 0-.2.1-.1.1-.1.4 0 .5l3.1 2.8c.1.1.4.1.5 0 .1-.1.1-.4 0-.5l-3.1-2.8c-.1-.1-.2-.1-.3-.1Zm-25.4 2.7c-.1 0-.2.1-.3.1L303 195c-.1.2-.1.4.1.5.2.1.4.1.5-.1l2.5-3.4c.1-.2.1-.4-.1-.5h-.2Zm22.4 0c-.1 0-.1 0-.2.1-.2.1-.2.4-.1.5l2.5 3.4c.1.2.4.2.5.1.1-.1.2-.4.1-.5l-2.5-3.4c0-.2-.2-.2-.3-.2Zm-25.6.5c-.1 0-.2.1-.2.1l-1.2 1.3c-.1.1-.1.4 0 .5.1.1.4.1.5 0l1.2-1.3c.1-.1.1-.4 0-.5-.1-.1-.2-.1-.3-.1Zm28.8 0c-.1 0-.2 0-.3.1-.1.1-.2.4 0 .5l1.2 1.3c.1.1.4.2.5 0 .1-.1.2-.4 0-.5l-1.2-1.3c0-.1-.1-.1-.2-.1Zm-22.2 1.4c-.1 0-.3.1-.3.2l-1.7 3.8c-.1.2 0 .4.2.5.2.1.4 0 .5-.2l1.7-3.8c.1-.2 0-.4-.2-.5-.1.1-.1.1-.2 0Zm15.6.1h-.1c-.2.1-.3.3-.2.5l1.7 3.8c.1.2.3.3.5.2.2-.1.3-.3.2-.5l-1.7-3.8c-.2-.2-.3-.3-.4-.2Zm-18.6 1.1c-.1 0-.2.1-.3.2l-.9 1.5c-.1.2 0 .4.1.5.2.1.4 0 .5-.1l.9-1.5c.1-.2 0-.4-.1-.5 0-.1-.1-.1-.2-.1Zm21.6 0c-.1 0-.1 0-.2.1-.2.1-.2.3-.1.5l.9 1.5c.1.2.3.2.5.1s.2-.3.1-.5l-.9-1.5c-.1-.1-.2-.2-.3-.2Zm-14.8.1c-.2 0-.3.1-.4.3l-.9 4.1c0 .2.1.4.3.4.2 0 .4-.1.4-.3l.9-4.1c.1-.2 0-.4-.3-.4.1 0 .1 0 0 0Zm8 0s-.1 0 0 0c-.3 0-.4.2-.4.4l.9 4.1c0 .2.2.3.4.3s.3-.2.3-.4l-.9-4.1c0-.2-.2-.3-.3-.3Zm-4 .4c-.2 0-.4.2-.4.4v4.2c0 .2.2.4.4.4s.4-.2.4-.4v-4.2c0-.2-.2-.4-.4-.4Zm-6.7 1.4c-.1 0-.3.1-.3.2l-.5 1.7c-.1.2 0 .4.2.5.2.1.4 0 .5-.2l.5-1.7c.1-.2 0-.4-.2-.5h-.2Zm13.4 0h-.1c-.2.1-.3.3-.2.5l.5 1.7c.1.2.3.3.5.2.2-.1.3-.3.2-.5l-.5-1.7c-.1-.1-.3-.2-.4-.2Zm-9 .9c-.2 0-.3.1-.3.3l-.2 1.8c0 .2.1.4.3.4.2 0 .4-.1.4-.3l.2-1.8c0-.2-.1-.4-.4-.4.1 0 .1 0 0 0Zm4.6 0s-.1 0 0 0c-.3 0-.4.2-.4.4l.2 1.8c0 .2.2.4.4.3.2 0 .4-.2.3-.4l-.2-1.8c0-.1-.2-.3-.3-.3Z" fill="#F3F1F2"/><path d="m334.1 161.9-19.9 11.6-12.6 19.8 18.4-13.6 14.1-17.8Z" fill="#1E1E1E" opacity=".41"/><path d="m319.9 179.4-5.7-6 20.2-13.6-14.5 19.6Z" fill="#FF5150"/><path d="m319.9 179.4-5.7-6-14.5 19.6 20.2-13.6Z" fill="#F0F0F0"/><path opacity=".24" d="m299.6 193 20.2-13.6 14.5-19.6-34.7 33.2Z" fill="#1E1E1E"/><path d="M298.3 154.1c-1.6-2.1-4.4-4.2-6.3-4.6 1.7 1.9 3.1 4 4.2 6.4-4.3-5.8-9.6-7.2-14.8-12-.3-.2-.5-.5-.8-.7l-.4-.4c-.2-.2-.4-.5-.6-.8-5.1 4.9-5.5 11.7-4.9 14.9-2.4.8-4.4 2.2-5.9 4.1-.2-.1-.5-.2-.7-.3-1-1.7-1.5-3.6-1.5-5.6-1.9 1.6-3.5 3.6-4.6 5.8-1.2-.9-2.1-4.7-2.3-5.6-.2.2-.5.4-.7.6-.7.8-1.3 1.6-1.8 2.5-.6 1-1.1 2.1-1.6 3.1-1 2.5-1.5 5.1-1.4 7.8v.2c0 .2.1 1.3.1 1.5v.1c.1 1.1.2 2.2.4 3.3v.1c1.5 5.8 5.1 10.7 10.3 13.9a25.2 25.2 0 0 0 17.4 3.4c6.1-1 11.5-4.2 15.3-9a23.3 23.3 0 0 0 5.2-16.6c0-.3-.1-.6-.1-.9-.5-4.1-2.1-7.9-4.5-11.2Zm-22.8 25.1c.1 0 .2.1.4.1-.1 0-.3-.1-.4-.1Z" fill="url(#i)"/><path d="M298.3 154.1c-1.6-2.1-4.4-4.2-6.3-4.6 1.7 1.9 3.1 4 4.2 6.4 3.1 4.6 4.3 10.2 3.2 15.7-1.3 6.4-6.4 13.9-16.8 16.2-11.2 2.6-23.1-2.9-27.6-13-.8-1.6-.6-2.5-.8-3.9 0 1.1.2 2.2.4 3.3v.1c1.5 5.8 5.1 10.7 10.3 13.9a25.2 25.2 0 0 0 17.4 3.4c6.1-1 11.5-4.2 15.3-9a23.3 23.3 0 0 0 5.2-16.6c0-.3-.1-.6-.1-.9-.4-3.9-2-7.7-4.4-11Z" fill="url(#j)"/><path d="M298.3 154.1c-1.6-2.1-4.4-4.2-6.3-4.6 1.7 1.9 3.1 4 4.2 6.4 3.1 4.6 4.3 10.2 3.2 15.7-1.3 6.4-6.4 13.9-16.8 16.2-11.2 2.6-23.1-2.9-27.6-13-.8-1.6-.6-2.5-.8-3.9 0 1.1.2 2.2.4 3.3v.1c1.5 5.8 5.1 10.7 10.3 13.9a25.2 25.2 0 0 0 17.4 3.4c6.1-1 11.5-4.2 15.3-9a23.3 23.3 0 0 0 5.2-16.6c0-.3-.1-.6-.1-.9-.4-3.9-2-7.7-4.4-11Z" fill="url(#k)"/><path d="M287.4 159.8c.1 0 .1 0 .2.1-.9-.9-1.8-1.6-2.9-2.2-9.2-5.3-5.9-15-5.1-15.7-5.1 4.9-5.5 11.7-4.9 14.9.3-.1.5-.2.8-.3 2.1-.5 4.3-.5 6.4 0 2.1.6 4 1.7 5.5 3.2Z" fill="url(#l)"/><path d="M277.4 163.9c.1.6-1.5 3.1-2.2 3.3-6.8 1.7-6.8 6-6.8 6 1.1 3.3 4.3 5.4 7.5 6.1.1 0 .3.1.5.1.3 0 .5.1.8.1 1.1.1 2.2 0 3.2-.2 12-2.5 10.6-17.4 1-19.3 2-.8 4.1-.8 6.1-.1a12.7 12.7 0 0 0-5.5-3.2c-2.1-.6-4.3-.6-6.4 0-.3.1-.5.2-.8.2-2.4.8-4.4 2.2-5.9 4.1.4.2 1 .5 2 1.1 1.9 1.1 6.4 1.6 6.5 1.8Z" fill="url(#m)"/><path d="M277.4 163.9c.1.6-1.5 3.1-2.2 3.3-6.8 1.7-6.8 6-6.8 6 1.1 3.3 4.3 5.4 7.5 6.1.1 0 .3.1.5.1.3 0 .5.1.8.1 1.1.1 2.2 0 3.2-.2 12-2.5 10.6-17.4 1-19.3 2-.8 4.1-.8 6.1-.1a12.7 12.7 0 0 0-5.5-3.2c-2.1-.6-4.3-.6-6.4 0-.3.1-.5.2-.8.2-2.4.8-4.4 2.2-5.9 4.1.4.2 1 .5 2 1.1 1.9 1.1 6.4 1.6 6.5 1.8Z" fill="url(#n)"/><path d="M267.5 160.5c.2.1.4.1.6.2-1-1.7-1.5-3.6-1.5-5.6-1.9 1.6-3.5 3.6-4.6 5.8 0-.1 3.4-1.1 5.5-.4Z" fill="url(#o)"/><path d="M255.1 174.9c4.5 10 16.4 15.5 27.6 13 10.4-2.4 15.5-9.9 16.8-16.2 1-5.5-.1-11.1-3.2-15.7 2.2 5.1.7 11-2.8 15.6-6.8 8.9-15.7 8.4-17.6 7.7-.1 0-.3-.1-.4-.1-5.6-1-8.8-4.9-9.3-8.8-1.2.3-2.4.3-3.6-.1-1.2-.4-2.2-1-2.9-1.9 1.1-1.1 2.5-1.9 4-2.4s3.1-.5 4.7-.2c3.1.5 6.4-.2 9-1.9-.1-.2-4.6-.7-6.6-1.8-1.1-.6-1.6-.9-2-1.1-.2-.1-.5-.2-.7-.3-.2-.1-.4-.1-.6-.2-2-.6-5.5.3-5.6.3-1.2-.9-2.1-4.7-2.3-5.6-.2.2-.5.4-.7.6-.7.8-1.3 1.6-1.8 2.5-.6 1-1.1 2.1-1.6 3.1-1 2.5-1.5 5.1-1.4 7.8 0 .2.1 4 1 5.7Z" fill="url(#p)"/><path d="M284.7 157.6c1.1.6 2.1 1.4 2.9 2.2.1.1.3.1.4.2 6.6 3.4 5.5 11 5.5 11.5 3.5-4.6 5-10.5 2.8-15.6-4.4-5.8-9.6-7.2-14.8-12-.3-.2-.5-.5-.8-.7l-.4-.4c-.2-.2-.4-.5-.6-.8-.9.6-4.3 10.4 5 15.6Z" fill="url(#q)"/><path d="M288 160.1c-.1-.1-.3-.1-.4-.2-.1 0-.1 0-.2-.1-2-.7-4.1-.6-6.1.1 9.6 1.9 11 16.8-1 19.3-1.1.2-2.2.3-3.2.2-.3 0-.5-.1-.8-.1-.1 0-.3-.1-.5-.1 1.9.7 10.8 1.2 17.6-7.7.2-.5 1.3-8-5.4-11.4Z" fill="url(#r)"/><path d="M268.4 173.2s.1-4.2 6.8-6c.7-.2 2.3-2.7 2.2-3.3-2.6 1.8-5.9 2.5-9 1.9-1.5-.3-3.1-.2-4.7.2s-2.9 1.3-4 2.4c.8.9 1.8 1.6 2.9 1.9 1.2.4 2.4.4 3.6.1.5 3.9 3.7 7.7 9.3 8.8.1 0 .2.1.4.1-3.3-.7-6.4-2.9-7.5-6.1Z" fill="url(#s)"/><path d="M298.3 154.1c-1.6-2.1-4.4-4.2-6.3-4.6 1.7 1.9 3.1 4 4.2 6.4-4.3-5.8-9.6-7.2-14.8-12-.3-.2-.5-.5-.8-.7l-.4-.4c-.2-.2-.4-.5-.6-.8-5.1 4.9-5.5 11.7-4.9 14.9.3-.1.5-.2.8-.2 2.1-.5 4.3-.5 6.4 0 2.1.6 4 1.7 5.5 3.2-2-.7-4.1-.6-6.1.1 9.6 1.9 11 16.8-1 19.3-1.1.2-2.2.3-3.2.2-.3 0-.5-.1-.8-.1-.1 0-.3-.1-.5-.1-.1 0-.3 0-.4-.1.1 0 .2.1.4.1-3.3-.7-6.4-2.8-7.5-6.1 0 0 .1-4.2 6.9-6 .7-.2 2.3-2.7 2.2-3.3-.1-.2-4.6-.7-6.6-1.8-1.1-.6-1.6-.9-2-1.1-.2-.1-.5-.2-.7-.3-1-1.7-1.5-3.6-1.5-5.6-1.9 1.6-3.5 3.6-4.6 5.8-1.2-.9-2.1-4.7-2.3-5.6-.2.2-.5.4-.7.6-.7.8-1.3 1.6-1.8 2.5-.6 1-1.1 2.1-1.6 3.1-1 2.5-1.5 5.1-1.4 7.8v.2c0 .2.1 1.3.1 1.5.1 1.1.2 2.2.5 3.3v.1c1.5 5.8 5.1 10.7 10.3 13.9a25.2 25.2 0 0 0 17.4 3.4c6.1-1 11.5-4.2 15.3-9a23.3 23.3 0 0 0 5.2-16.6c0-.3-.1-.6-.1-.9-.6-3.9-2.1-7.8-4.6-11.1Z" fill="url(#t)"/><path d="M257.8 161.7a25.32 25.32 0 0 0-21.8-12.6 25.32 25.32 0 0 0-21.8 12.6l1.5 27.3 42.1-27.3Z" fill="url(#u)"/><path d="m225 180.6-11-18.9c-2.2 3.8-3.4 8.2-3.4 12.6a25.32 25.32 0 0 0 12.6 21.8c3.8 2.2 8.2 3.4 12.6 3.4l24.7-25.2-35.5 6.3Z" fill="url(#v)"/><path d="m246.8 180.6-10.9 18.9a25.32 25.32 0 0 0 21.8-12.6c2.2-3.8 3.4-8.2 3.4-12.6s-1.2-8.8-3.4-12.6h-21.9l11 18.9Z" fill="url(#w)"/><path d="M235.9 186.9c1.7 0 3.3-.3 4.8-1s2.9-1.6 4.1-2.7c1.2-1.2 2.1-2.6 2.7-4.1.6-1.5 1-3.2 1-4.8 0-1.6-.3-3.3-1-4.8s-1.6-2.9-2.7-4.1c-1.2-1.2-2.6-2.1-4.1-2.7-1.5-.6-3.2-1-4.8-1-3.4 0-6.6 1.3-8.9 3.7a12.57 12.57 0 0 0 0 17.8 13 13 0 0 0 8.9 3.7Z" fill="#fff"/><path d="M235.9 184.3a9.95 9.95 0 0 0 7-3 9.95 9.95 0 0 0 3-7 9.95 9.95 0 0 0-3-7 9.95 9.95 0 0 0-7-3c-2.6 0-5.2 1.1-7.1 2.9a9.73 9.73 0 0 0-2.9 7.1c0 2.7 1.1 5.2 2.9 7.1a9.9 9.9 0 0 0 7.1 2.9Z" fill="#1A73E7"/><path d="M207.2 178c3.1 22.3 6.1 44.5 9.2 66.8l60 1.2 22.8-67.8-92-.2Z" fill="#CCCCD8"/><path d="m352 180-44.8 63.4-30.8 2.6 22.8-67.8L352 180Z" fill="#DADAE8"/><path d="M225.1 252c0 1.1.1 14.7 8.9 19.5 2.8 1.5 5.6 1.7 10 2 3.9.3 7.8.5 12-1 8-2.9 11.7-10.3 12-11 4.4-9.3 1.3-21-6-27-5.1-4.2-11.2-4.8-14-5-3.2-.3-8.2-.7-13 2-9.6 5.4-9.8 18.8-9.9 20.5Z" fill="#543530"/><path d="M220.5 252c.2 10.6 8.6 20.3 19.5 21.4 9.2.9 17.9-4.5 21.4-12.1 5.6-12.4-3.1-29.9-16.7-31.6-11.8-1.5-24.4 9.1-24.2 22.3Z" fill="#3E1D16"/><path d="M109.9 225.9c-5.9 11.4-12.6 22.5-20 33 2.7.7 5.3 2.4 6.6 4.9 1.3 2.5.8 6-1.5 7.7-.5.4-1.2.7-1.8.7-.7 0-1.3-.4-1.8-.7l-10.1-6c-1.5-.9-3.2-1.9-3.7-3.6-.7-2 .4-4 1.4-5.9 5.6-9.8 11.2-19.5 16.8-29.3 1.3-2.3 2.7-4.6 4.8-6.2 2.2-1.5 5.3-2 7.3-.3 2.4 1.9 2.2 5.8.6 8.5m-17.2-96.1c1.5.5 2.7 1.4 3.6 2.7 2.4 3.4 8.6 11.8 17 19 9.2 8 19.4 14.7 26.7 17.9 3.5 1.5 7.2 3 19.7 8.5.8.4 2.7 1.2 2.8 2.5 0 .4-.1.9-.5 1.1-.4.2-1-.2-2.2-.9 1.3 1 1.6 2.4 1.1 3.1-.4.5-1.1.6-1.4.6 0 0-.8 0-2.2-.9.6.4.8 1.1.6 1.6-.3.6-1.3.7-1.6.6-1.1-.5-2-.9-2.2-.9-10.6-3.4-20.4-8.3-27.8-11.9-5.7-2.7-14.1-8.4-18.8-12.6-9.3-8.5-16-16.9-19.2-21.1-1.6-2.2-2-5.1-.8-7.5.4-.8.9-1.4 1.6-1.7 1.2-.6 2.5-.4 3.6-.1Z" fill="#EAC1A2"/><path d="M116.1 85.2c1.8-.6 3.6-.9 5.4-.9.9 0 1.8 0 2.8.1.5.1 1.1.1 1.6.1.7-.1 1.3-.7 1.2-1.5-.1-.7-.8-1.2-1.3-1.6a28.5 28.5 0 0 0-5.6-2.6c-2-.7-4.1-1.1-6.2-1.3-.6-.1-1.1.6-1.1 1.1 0 .7.5 1.1 1.1 1.1 3.3.4 6.5 1.3 9.4 2.9.5.3 1.1.6 1.5.9.3.2.1.1.1.1.3-.4-.1-.9.4-1.2.1-.1.3-.2.1-.1.1-.1.2 0 .1 0h-.3c-1.4-.1-2.8-.2-4.2-.2-1.9.1-3.7.4-5.5 1-1.5.4-.9 2.6.5 2.1Z" fill="#3E1D16"/><defs><radialGradient id="d" cx="0" cy="0" r="1" gradientUnits="userSpaceOnUse" gradientTransform="matrix(12.84223 -12.14425 11.54312 12.20655 263.37 150.81)"><stop offset=".7" stop-opacity="0"/><stop offset=".9" stop-opacity=".5"/><stop offset="1"/></radialGradient><radialGradient id="f" cx="0" cy="0" r="1" gradientUnits="userSpaceOnUse" gradientTransform="matrix(-15.16285 -21.8246 17.62605 -12.24586 252.34 164.76)"><stop offset=".8" stop-opacity="0"/><stop offset=".9" stop-opacity=".5"/><stop offset="1"/></radialGradient><radialGradient id="g" cx="0" cy="0" r="1" gradientUnits="userSpaceOnUse" gradientTransform="rotate(48.89 -53.05 331.28) scale(37.55 79.925)"><stop stop-color="#35C0F0"/><stop offset=".1" stop-color="#34C0EC"/><stop offset=".2" stop-color="#2FC1DE"/><stop offset=".3" stop-color="#2BC2D1"/><stop offset=".7" stop-color="#36C652"/></radialGradient><radialGradient id="h" cx="0" cy="0" r="1" gradientUnits="userSpaceOnUse" gradientTransform="matrix(15.56553 9.11403 -7.4087 12.65306 261.3 129.62)"><stop stop-color="#66EA6E"/><stop offset="1" stop-color="#66EA6E" stop-opacity="0"/></radialGradient><radialGradient id="j" cx="0" cy="0" r="1" gradientUnits="userSpaceOnUse" gradientTransform="rotate(-14.39 729.23 -1081.61) scale(51.1875 49.5625)"><stop offset=".13" stop-color="#FFBC4F"/><stop offset=".19" stop-color="#FFAB31"/><stop offset=".25" stop-color="#FF9C17"/><stop offset=".28" stop-color="#FF970E"/><stop offset=".4" stop-color="#FF563B"/><stop offset=".47" stop-color="#FF3750"/><stop offset=".71" stop-color="#F4156C"/><stop offset=".78" stop-color="#EA0878"/><stop offset=".86" stop-color="#E40080"/></radialGradient><radialGradient id="k" cx="0" cy="0" r="1" gradientUnits="userSpaceOnUse" gradientTransform="rotate(-14.39 818.49 -1016.87) scale(51.1875 49.5625)"><stop offset=".3" stop-color="#950E18"/><stop offset=".35" stop-color="#B01927" stop-opacity=".74"/><stop offset=".43" stop-color="#DA293D" stop-opacity=".34"/><stop offset=".5" stop-color="#F4334B" stop-opacity=".09"/><stop offset=".53" stop-color="#FF3750" stop-opacity="0"/></radialGradient><radialGradient id="l" cx="0" cy="0" r="1" gradientUnits="userSpaceOnUse" gradientTransform="matrix(35.91185 -9.21385 8.92184 34.7737 273.83 138.8)"><stop offset=".13" stop-color="#FFF34F"/><stop offset=".25" stop-color="#FFDB3E"/><stop offset=".51" stop-color="#FF9C12"/><stop offset=".53" stop-color="#FF970E"/></radialGradient><radialGradient id="m" cx="0" cy="0" r="1" gradientUnits="userSpaceOnUse" gradientTransform="rotate(-14.39 872.78 -1008.18) scale(24.375 23.6)"><stop offset=".35" stop-color="#3A8DE5"/><stop offset=".47" stop-color="#5C79EF"/><stop offset=".67" stop-color="#8F59FF"/><stop offset="1" stop-color="#C039E5"/></radialGradient><radialGradient id="n" cx="0" cy="0" r="1" gradientUnits="userSpaceOnUse" gradientTransform="rotate(-27.56 476.92 -484.66) scale(12.9 14.675)"><stop offset=".21" stop-color="#8F59FF" stop-opacity="0"/><stop offset=".28" stop-color="#8B4FF2" stop-opacity=".06"/><stop offset=".75" stop-color="#7716A7" stop-opacity=".45"/><stop offset=".97" stop-color="#6E008A" stop-opacity=".6"/></radialGradient><radialGradient id="o" cx="0" cy="0" r="1" gradientUnits="userSpaceOnUse" gradientTransform="matrix(16.98729 -4.35843 4.21862 16.44234 272.153 146.289)"><stop stop-color="#FFE126"/><stop offset=".12" stop-color="#FFDA27"/><stop offset=".29" stop-color="#FFC72A"/><stop offset=".5" stop-color="#FFA830"/><stop offset=".73" stop-color="#FF7E37"/><stop offset=".79" stop-color="#FF7139"/></radialGradient><radialGradient id="p" cx="0" cy="0" r="1" gradientUnits="userSpaceOnUse" gradientTransform="matrix(72.47748 -18.59557 18.00223 70.16489 286.9 134.12)"><stop offset=".11" stop-color="#FFF34F"/><stop offset=".46" stop-color="#FF970E"/><stop offset=".62" stop-color="#FF5634"/><stop offset=".72" stop-color="#FF3647"/><stop offset=".9" stop-color="#E21586"/></radialGradient><radialGradient id="q" cx="0" cy="0" r="1" gradientUnits="userSpaceOnUse" gradientTransform="matrix(18.69147 49.7015 -33.67244 12.66335 275.09 140.07)"><stop stop-color="#FFF34F"/><stop offset=".06" stop-color="#FFE747"/><stop offset=".17" stop-color="#FFC730"/><stop offset=".3" stop-color="#FF970E"/><stop offset=".36" stop-color="#FF8A16"/><stop offset=".46" stop-color="#FF672A"/><stop offset=".57" stop-color="#FF3647"/><stop offset=".74" stop-color="#E21586"/></radialGradient><radialGradient id="r" cx="0" cy="0" r="1" gradientUnits="userSpaceOnUse" gradientTransform="matrix(45.23488 -11.60584 11.23617 43.79405 271.6 152.71)"><stop offset=".14" stop-color="#FFF34F"/><stop offset=".48" stop-color="#FF970E"/><stop offset=".59" stop-color="#FF5634"/><stop offset=".66" stop-color="#FF3647"/><stop offset=".9" stop-color="#E21586"/></radialGradient><radialGradient id="s" cx="0" cy="0" r="1" gradientUnits="userSpaceOnUse" gradientTransform="matrix(49.52094 -12.7056 12.29867 47.9349 288.61 150.73)"><stop offset=".09" stop-color="#FFF34F"/><stop offset=".23" stop-color="#FFE041"/><stop offset=".51" stop-color="#FFAE1E"/><stop offset=".63" stop-color="#FF970E"/></radialGradient><linearGradient id="a" x1="293" y1="122.62" x2="286.22" y2="169.91" gradientUnits="userSpaceOnUse"><stop stop-color="#FF1B2D"/><stop offset=".3" stop-color="#FF1B2D"/><stop offset=".61" stop-color="#FF1B2D"/><stop offset="1" stop-color="#A60014"/></linearGradient><linearGradient id="b" x1="304.86" y1="127.16" x2="298.86" y2="168.99" gradientUnits="userSpaceOnUse"><stop stop-color="#9B0000"/><stop offset=".7" stop-color="#FF4B4B"/><stop offset="1" stop-color="#FF4B4B"/></linearGradient><linearGradient id="c" x1="248.71" y1="163.24" x2="272.71" y2="140.54" gradientUnits="userSpaceOnUse"><stop stop-color="#0C59A3"/><stop offset="1" stop-color="#114A8A"/></linearGradient><linearGradient id="e" x1="251.56" y1="140.85" x2="252.01" y2="171.36" gradientUnits="userSpaceOnUse"><stop stop-color="#1B9CE1"/><stop offset=".2" stop-color="#1594DE"/><stop offset=".7" stop-color="#0680D6"/><stop offset="1" stop-color="#0078D3"/></linearGradient><linearGradient id="i" x1="292.19" y1="145.91" x2="263.72" y2="193.84" gradientUnits="userSpaceOnUse"><stop offset=".05" stop-color="#FFF34F"/><stop offset=".11" stop-color="#FFE747"/><stop offset=".23" stop-color="#FFC730"/><stop offset=".37" stop-color="#FF970E"/><stop offset=".4" stop-color="#FF8A16"/><stop offset=".46" stop-color="#FF672A"/><stop offset=".53" stop-color="#FF3647"/><stop offset=".7" stop-color="#E21586"/></linearGradient><linearGradient id="t" x1="291.68" y1="145.87" x2="267.79" y2="187.78" gradientUnits="userSpaceOnUse"><stop offset=".17" stop-color="#FFF34F" stop-opacity=".8"/><stop offset=".27" stop-color="#FFF34F" stop-opacity=".63"/><stop offset=".49" stop-color="#FFF34F" stop-opacity=".22"/><stop offset=".6" stop-color="#FFF34F" stop-opacity="0"/></linearGradient><linearGradient id="u" x1="214.06" y1="169.04" x2="257.79" y2="169.04" gradientUnits="userSpaceOnUse"><stop stop-color="#D83025"/><stop offset="1" stop-color="#E94335"/></linearGradient><linearGradient id="v" x1="245.18" y1="194.2" x2="223.32" y2="156.34" gradientUnits="userSpaceOnUse"><stop stop-color="#1E8D3E"/><stop offset="1" stop-color="#34A753"/></linearGradient><linearGradient id="w" x1="232.24" y1="199.58" x2="254.1" y2="161.78" gradientUnits="userSpaceOnUse"><stop stop-color="#FBC834"/><stop offset="1" stop-color="#FABB04"/></linearGradient></defs></svg>