<svg xmlns="http://www.w3.org/2000/svg" width="24" height="24" fill="none"><path fill-rule="evenodd" clip-rule="evenodd" d="M6.34 2h11.32A4.35 4.35 0 0 1 22 6.34v11.32A4.35 4.35 0 0 1 17.66 22H6.34A4.35 4.35 0 0 1 2 17.66V6.34A4.35 4.35 0 0 1 6.34 2Z" fill="url(#a)"/><path d="M9.74 19.28c-1.1 0-2.15-.17-3.06-.79a4.27 4.27 0 0 1-1.93-3.05 4.92 4.92 0 0 1 1.3-4.03c.44-.5.88-1 1.28-1.53.37-.5.53-1.08.41-1.7A1.66 1.66 0 0 0 5.91 6.9c-.42.05-.8.2-1.16.44l.09-.18a5.05 5.05 0 0 1 3.7-2.4 3.5 3.5 0 0 1 3.22 1.15c.81.91.94 1.97.57 3.1-.3.93-.9 1.63-1.7 2.17-.55.38-1.12.73-1.68 1.1a4.18 4.18 0 0 0-1.75 2.26c-.56 1.86.4 4.14 2.46 4.72l.08.02Zm2.75-2.88c0 1.18-.94 2.12-2.12 2.12a2.12 2.12 0 1 1 0-4.24c1.18 0 2.12.95 2.12 2.12Zm-2.13.98a.98.98 0 1 0 .01-1.95c-.54 0-1 .44-.99.97 0 .54.44.98.97.98Zm4.17.68c.81.06 1.58.18 2.01 1.04-1.77.16-3.5.18-5.25.19a3.13 3.13 0 0 0 1.97-1.92c.33-.96.2-1.86-.36-2.7a3.1 3.1 0 0 0-4.74-.32 2.83 2.83 0 0 1 2.66-1.78 3.8 3.8 0 0 1 3.5 2.02c.34.58.47 1.24.47 1.93 0 .52-.08 1.02-.26 1.54Zm4.77-3.62c-.18-.04-.33-.08-.48-.1-.44-.08-.86.01-1.26.2-.33.15-.67.33-1.05.35-.29.01-.58-.03-.87-.05-.12-.01-.2-.1-.25-.2a5.31 5.31 0 0 0-2.8-2.49 4.9 4.9 0 0 0-1.87-.3c-.05 0-.11 0-.18-.02l.18-.09c.55-.17 1.1-.22 1.67-.17a6.8 6.8 0 0 1 2.4.62c.47.24.92.53 1.38.79.54.3 1.14.44 1.75.5a2 2 0 0 1 .97.27c.24.16.4.37.41.7Zm-6.83-3.53c.54-.25 1.1-.48 1.62-.75.4-.21.76-.49 1.13-.73.14-.1.19-.22.19-.38 0-.6.13-1.15.48-1.64l.12-.15c.24.23.4.5.5.8.06.16.1.32.14.48.02.12.07.18.2.22a3.35 3.35 0 0 1 2.38 3.02c.02.18.01.37 0 .56 0 .05-.06.13-.1.15a3.05 3.05 0 0 1-2.63-.28 9.1 9.1 0 0 0-2.3-1.03 6.05 6.05 0 0 0-1.73-.27Z" fill="#FEFEFE"/><defs><linearGradient id="a" x1="12" y1="22" x2="12" y2="2" gradientUnits="userSpaceOnUse"><stop stop-color="#FF790C"/><stop offset="1" stop-color="#FFA422"/></linearGradient></defs></svg>