<svg xmlns="http://www.w3.org/2000/svg" width="26" height="24" fill="none"><path fill-rule="evenodd" clip-rule="evenodd" d="M12 21a9 9 0 1 0 0-18 9 9 0 0 0 0 18Zm0-5a4 4 0 1 0 0-8 4 4 0 0 0 0 8Z" fill="url(#a)"/><path d="M19 16h.5a2.5 2.5 0 0 1 0 5h-7a2.5 2.5 0 0 1-2.37-3.3A2 2 0 0 1 12 15a2 2 0 0 1 1.08.32A3 3 0 0 1 19 16Z" fill="url(#b)"/><path d="M20.9 11.9h-4.8a4.1 4.1 0 0 0-6.37-3.31 4.1 4.1 0 0 0 .7 7.2L20.9 11.9Zm0 0A8.9 8.9 0 0 0 7.08 4.58a8.9 8.9 0 0 0 5.24 16.31h.01l.17.01h7a2.4 2.4 0 0 0 0-4.8h-.6V16a2.9 2.9 0 0 0-4.4-2.49l6.4-1.61Z" stroke="url(#c)" stroke-opacity=".1" stroke-width=".2"/><defs><radialGradient id="a" cx="0" cy="0" r="1" gradientUnits="userSpaceOnUse" gradientTransform="rotate(-29.05 43.8 -6.15) scale(15.4434)"><stop stop-color="#fff"/><stop offset=".25" stop-color="#E8F4FB"/><stop offset=".55" stop-color="#54C0FA"/><stop offset="1" stop-color="#0F74E2"/></radialGradient><radialGradient id="c" cx="0" cy="0" r="1" gradientUnits="userSpaceOnUse" gradientTransform="matrix(0 9.00002 -9.5 0 12.5 12)"><stop offset=".76" stop-opacity="0"/><stop offset=".78"/></radialGradient><linearGradient id="b" x1="15.5" y1="21" x2="10" y2="21" gradientUnits="userSpaceOnUse"><stop stop-color="#fff"/><stop offset="1" stop-color="#F3FAFE"/></linearGradient></defs></svg>