<svg fill="none" height="24" width="24" xmlns="http://www.w3.org/2000/svg"><g fill="#8fbb45"><path d="M17.92 17.16c0 .45-.36.81-.81.81H7.69a.81.81 0 0 1-.81-.81v-8.4c2.47-.02 8.22-.02 11.04 0zM10.37 4.44c.04.1 0 .2-.08.25-.1.05-.21.01-.26-.08L8.84 2.3a.19.19 0 0 1 .34-.17l1.19 2.32zm4.33.1a.19.19 0 0 1-.26.07.19.19 0 0 1-.06-.26l1.3-2.26a.19.19 0 0 1 .25-.06c.1.05.13.16.07.25zm6.1 10.34a1.18 1.18 0 1 1-2.38 0V9.69a1.18 1.18 0 1 1 2.37 0v5.19zm-14.43 0a1.19 1.19 0 0 1-2.37 0V9.69a1.18 1.18 0 1 1 2.37 0z"/><path d="M11.53 20.82a1.19 1.19 0 0 1-2.37 0v-5.2a1.19 1.19 0 1 1 2.37 0zm4.11 0a1.19 1.19 0 0 1-2.37 0v-5.2a1.19 1.19 0 0 1 2.37 0zM12.4 3.21a5.63 5.63 0 0 0-5.57 5.01h11.14a5.63 5.63 0 0 0-5.57-5.01zM9.88 6.25a.46.46 0 1 1 0-.93.46.46 0 0 1 0 .93zm5.04 0a.46.46 0 1 1 0-.93.46.46 0 0 1 0 .93z"/></g></svg>