<svg fill="none" height="24" width="25" xmlns="http://www.w3.org/2000/svg"><path d="M4.35 9.032h2.525c2.625 0 2.829-1.637 2.829-2.139 0-.45-.168-.861-.474-1.156-.39-.374-.985-.564-1.77-.564H5.04a.297.297 0 0 0-.29.236l-.69 3.265a.296.296 0 0 0 .29.358zm7.281 5.936H9.208a.297.297 0 0 0-.29.236l-.688 3.265a.297.297 0 0 0 .29.358h2.523c2.625 0 2.83-1.634 2.83-2.134 0-.405-.162-1.725-2.242-1.725zM8.83 11.643c0-.403-.161-1.72-2.243-1.72H4.165a.297.297 0 0 0-.29.235l-.688 3.265a.297.297 0 0 0 .29.358h2.524c2.626 0 2.83-1.636 2.83-2.138zm9.036 1.544h-2.42a.296.296 0 0 0-.29.23l-.688 2.968a.296.296 0 0 0 .289.364h2.523c2.462 0 2.83-1.246 2.83-1.99 0-.587-.292-1.572-2.244-1.572zm.891-5.046h-2.421a.297.297 0 0 0-.29.23l-.688 2.968a.296.296 0 0 0 .289.364h2.524c2.461 0 2.829-1.247 2.829-1.99 0-.587-.292-1.572-2.243-1.572zm-6.19 1.781h-2.422a.297.297 0 0 0-.29.235l-.69 3.266a.298.298 0 0 0 .29.358h2.526c2.624 0 2.828-1.636 2.828-2.138 0-.404-.161-1.72-2.242-1.72zm-2.237-.89h2.524c2.625 0 2.83-1.637 2.83-2.138 0-.404-.162-1.721-2.243-1.721H11.02a.297.297 0 0 0-.29.236l-.689 3.265a.296.296 0 0 0 .29.358z" fill="#000"/></svg>