<svg xmlns="http://www.w3.org/2000/svg" width="25" height="24" fill="none"><path d="M8.64 5a1.61 1.61 0 0 0-1.51 1c-.08.2-.13.4-.13.62v10.75a1.65 1.65 0 0 0 1.02 1.51c.2.08.4.12.62.12a1.6 1.6 0 0 0 1.52-1c.09-.2.13-.4.13-.62V6.62A1.66 1.66 0 0 0 8.64 5Zm5.44 4.98a1.62 1.62 0 0 0-2.9 1.26c.05.21.13.4.26.57l4.63 6.5a1.62 1.62 0 0 0 2.9-.6 1.58 1.58 0 0 0-.23-1.18l-.04-.05-4.61-6.5Zm2.11-.69a2.14 2.14 0 1 0 0-4.28 2.13 2.13 0 0 0-2 1.32c-.1.26-.16.54-.17.82a2.18 2.18 0 0 0 1.35 1.99c.26.1.54.16.82.15Z" fill="#6F02B5"/></svg>