<svg fill="none" height="24" width="25" xmlns="http://www.w3.org/2000/svg"><filter id="e" color-interpolation-filters="sRGB" filterUnits="userSpaceOnUse" height="66.916" width="61.425" x="-18.24" y="-17.71"><feFlood flood-opacity="0" result="BackgroundImageFix"/><feColorMatrix in="SourceAlpha" result="hardAlpha" values="0 0 0 0 0 0 0 0 0 0 0 0 0 0 0 0 0 0 127 0"/><feOffset dy="4"/><feGaussianBlur stdDeviation="10"/><feComposite in2="hardAlpha" operator="out"/><feColorMatrix values="0 0 0 0 0 0 0 0 0 0 0 0 0 0 0 0 0 0 0.1 0"/><feBlend in2="BackgroundImageFix" result="effect1_dropShadow_892_72177"/><feBlend in="SourceGraphic" in2="effect1_dropShadow_892_72177" result="shape"/></filter><linearGradient id="b" gradientUnits="userSpaceOnUse" x1="4.994" x2="15.234" y1="2.355" y2="4.939"><stop offset="0" stop-color="#639a59"/><stop offset="1" stop-color="#69a05c"/></linearGradient><linearGradient id="c" gradientUnits="userSpaceOnUse" x1="5.624" x2="11.351" y1="12.409" y2="22.416"><stop offset="0" stop-color="#5aac45"/><stop offset="1" stop-color="#55934f"/></linearGradient><linearGradient id="d" gradientUnits="userSpaceOnUse" x1=".157" x2="5.969" y1="2.742" y2="13.185"><stop offset="0" stop-color="#3e863d"/><stop offset="1" stop-color="#52914c"/></linearGradient><linearGradient id="f" gradientUnits="userSpaceOnUse" x1=".221" x2="11.518" y1="2.6" y2="22.471"><stop offset="0" stop-color="#6bbf47"/><stop offset=".294" stop-color="#70a861"/><stop offset=".63" stop-color="#54944d"/><stop offset="1" stop-color="#3e863d"/></linearGradient><mask id="a" height="24" maskUnits="userSpaceOnUse" width="22" x="1" y="0"><path d="M1.59 16.775V6.997a2 2 0 0 1 1.04-1.755L11.248.53a2 2 0 0 1 1.937.01l8.384 4.697a2 2 0 0 1 1.022 1.745v9.806a2 2 0 0 1-.99 1.727l-8.384 4.901a2 2 0 0 1-2 .01L2.6 18.511a2 2 0 0 1-1.009-1.737z" fill="#d9d9d9"/></mask><g mask="url(#a)"><rect fill="url(#b)" height="10.468" rx="2" transform="matrix(.87553 .48317 -.49635 .86813 10.13 -3.447)" width="18.767"/><rect fill="#3e863d" height="10.468" rx="2" transform="matrix(.87553 .48317 -.49635 .86813 1.986 8.842)" width="18.767"/><rect fill="url(#c)" height="26.1" rx="2" transform="matrix(.86982 .49338 -.50665 .86215 2.985 -7.832)" width="12.186"/><rect fill="url(#d)" height="26.096" rx="2" transform="matrix(.87553 .48317 -.49635 .86813 23.728 3.607)" width="12.188"/><g filter="url(#e)"><rect fill="url(#f)" height="26.089" rx="2" transform="matrix(.88325 -.4689 .48192 .87621 1.043 3.049)" width="11.646"/></g></g></svg>