<svg xmlns="http://www.w3.org/2000/svg" width="26" height="24" fill="none"><path d="M8.88 7.6c.82-1.18 1.96-1.9 3.22-1.9 2.48 0 4.5 2.82 4.5 6.3 0 3.47-2.02 6.3-4.5 6.3-1.39 0-2.63-.89-3.46-2.27a7 7 0 0 0 6.07 3.67c1.34 0 2.29-.32 3-.74a8.98 8.98 0 0 0-.17-14.04 6.63 6.63 0 0 0-2.83-.63A6.98 6.98 0 0 0 8.88 7.6Z" fill="url(#a)"/><path d="M3 12a9 9 0 0 0 14.72 6.95c-.71.42-1.66.74-3 .74a7 7 0 0 1-6.07-3.67 8.2 8.2 0 0 1-1.04-4v-.48c.08-1.45.54-2.8 1.27-3.94a6.98 6.98 0 0 1 5.84-3.32c1 0 1.96.23 2.83.63A9 9 0 0 0 3 12" fill="url(#b)"/><path fill-rule="evenodd" clip-rule="evenodd" d="M21.7 12.38h-7.84c-2.54 0-2.86 2.54-2.86 3.47v1.3h7.11c3.27 0 3.58-2.79 3.58-3.72v-1.05Z" fill="#439F46"/><path d="M13.2 13.58h.47l.76 1.88.75-1.88h.47v2.37h-.44V14.5l-.11.36-.46 1.09h-.43l-.46-1.09-.11-.36v1.45h-.43v-2.37Zm2.77 0h.45v2.37h-.45v-2.37Zm.77 0h.45l.99 1.5.1.2v-1.7h.43v2.37h-.45l-.99-1.51-.1-.19v1.7h-.43v-2.37Zm2.29 0h.45v2.37h-.45v-2.37Z" fill="#fff"/><defs><linearGradient id="a" x1="14.83" y1="4.28" x2="14.83" y2="19.69" gradientUnits="userSpaceOnUse"><stop stop-color="#9C0000"/><stop offset=".7" stop-color="#FF4B4B"/><stop offset="1" stop-color="#FF4B4B"/></linearGradient><linearGradient id="b" x1="10.36" y1="3" x2="10.36" y2="21" gradientUnits="userSpaceOnUse"><stop stop-color="#FF1B2D"/><stop offset=".3" stop-color="#FF1B2D"/><stop offset=".61" stop-color="#FF1B2D"/><stop offset="1" stop-color="#A70014"/></linearGradient></defs></svg>