<svg width="64" height="64" fill="none" xmlns="http://www.w3.org/2000/svg"><circle cx="32" cy="32" r="32" fill="#FFD539"/><path d="M51.83 31.59c-4.778 3.98-14.255 5.306-18.721 5.635l-6.197-13.597c4.34-5.034 13.336-13.322 14.603-6.197 1.267 7.124 7.53 10.371 10.511 10.998l-.197 3.16Z" fill="#fff"/><path fill-rule="evenodd" clip-rule="evenodd" d="M42.263 17.297c-.173-.974-.492-1.768-.985-2.352a2.912 2.912 0 0 0-1.885-1.03c-1.375-.184-2.957.474-4.454 1.393-3.053 1.874-6.45 5.277-8.637 7.814l-.325.377 6.628 14.546.542-.04c7.002-.516 13.06-2.371 19.162-5.815l.186-.155c1.8-1.28 3.741-4.032 1.2-5.483-1.118-.638-2.36-.11-3.16.606-3.015-1.212-7.28-4.284-8.272-9.861Zm7.43 11.195c-3.365-1.433-7.881-4.83-8.965-10.923-.143-.807-.383-1.313-.641-1.62a1.356 1.356 0 0 0-.901-.49c-.803-.107-1.98.286-3.432 1.177-2.706 1.661-5.796 4.687-7.944 7.128l5.762 12.644c5.492-.465 11.354-1.53 16.579-4.644a.729.729 0 0 0-.007-.012c.274-.158.49-.36.65-.585.188-.284.3-.618.322-.968l.004-.058c-.007-.568-.306-1.12-.905-1.438-.139-.053-.28-.11-.424-.17a2.335 2.335 0 0 0-.098-.025v-.015Z" fill="#1E1E1E"/><ellipse cx="40.061" cy="25.539" rx="2.719" ry="2.699" transform="rotate(-23.13 40.06 25.539)" fill="#1E1E1E"/><ellipse cx="40.463" cy="23.728" rx="1.101" ry="1.306" transform="rotate(-23.13 40.463 23.728)" fill="#fff"/><path d="M34.648 28.731c0 12.57 12.308 15.466 18.855 12.309-.752 2.98-3.427 5.5-7.761 6.334-.081 1.304 1.397 4.227 2.728 5.386-2.992 1.121-6.442-.401-8.347-1.597-.728 1.031-1.047 4.177-1.047 6.145-2.248 0-5.203-3.263-5.927-4.51-1.055.617-2.866 3.812-3.193 5.668-2.838-1.529-3.803-5.032-3.705-6.594-1.262.888-4.919 3.1-6.61 3.865-.82-1.91-.472-4.307 0-6.762-.71.376-5.95.86-8.043.376 1.056-1.2 2.49-3.9 3.125-5.154-2.226-.138-6.168-1.553-8.064-3.483 1.614-.718 3.191-1.754 4.939-3.502-2.22-1.183-5.61-2.948-6.415-6.03 2.08-.148 4.618-.438 5.944-1.037-1.69-.978-4.468-4.067-3.905-7.779 1.38.666 4.314 1.21 5.738.938-1.237-2.727-2.062-5.361-.846-8.996 1.313 1.495 3.852 2.9 4.928 3.288-.28-2.684.967-7.617 2.626-8.945.686 1.532 2.437 4.01 3.603 4.614.289-2.013 2.892-6.744 5.181-7.379 0 1.637.914 4.586 1.649 5.486 1.712-1.78 7.501-4.735 12.071-3.72-1.416 1.486-2.448 2.019-2.825 3.196 3.467 0 9.18 1.123 14.156 6.36-7.761-2.9-18.855 1.834-18.855 11.523Z" fill="#1E1E1E"/></svg>