<svg fill="none" height="16" width="23" xmlns="http://www.w3.org/2000/svg"><clipPath id="a"><path d="M0 0h22.86v16H0z"/></clipPath><g clip-path="url(#a)"><path d="M19.05 5.33v.23a.23.23 0 0 0 .45 0v-.23zm-.92 0v.23a.23.23 0 0 0 .46 0v-.23zm-.91 0v.23a.23.23 0 0 0 .46 0v-.23zm-.92 0v.23a.23.23 0 0 0 .46 0v-.23zm2.3 1.53v-.23a.23.23 0 0 1 .45 0v.23h-.46zm-.92 0v-.23a.23.23 0 0 1 .45 0v.23zm-.92 0v-.23a.23.23 0 0 1 .46 0v.23zm-.91 0v-.23a.23.23 0 0 1 .45 0v.23z" fill="#d5d3dd"/><path d="m22.77 14.93-1.13-1.13v-.39a2.14 2.14 0 0 0-1.83-2.11v-.33h.3a2.13 2.13 0 0 0 2.14-2.13V6.7a.3.3 0 0 0-.61 0v.08a.08.08 0 1 1-.15 0V6.7a.3.3 0 1 0-.61 0v.08a.08.08 0 1 1-.16 0V6.7a.3.3 0 1 0-.6 0v1.83a.3.3 0 0 1-.31.3V6.7h-3.96a.61.61 0 1 1 0-1.21h3.96V5a.61.61 0 0 0 0-1.18v-.78l-.46-.54-.45.39-.46-.46-.46.46-.46-.46-.45.46-.46-.46-.46.46-.45-.46-.46.46-.46-.39-.46.54v.78a.61.61 0 0 0 0 1.18v3.83a.3.3 0 0 1-.3-.3V6.7a.3.3 0 1 0-.61 0v.08a.08.08 0 1 1-.15 0V6.7a.3.3 0 1 0-.61 0v.08a.08.08 0 0 1-.13.05.08.08 0 0 1-.02-.05V6.7a.3.3 0 1 0-.61 0v2.14a2.13 2.13 0 0 0 2.13 2.13h.3v1.22a.3.3 0 0 1-.3.3H12.8v3.27l1.13-1.13h.4a2.13 2.13 0 0 0 1.92-1.22h2.95a.3.3 0 0 1 .3.3v1.22z" fill="#e2cbb5"/><path d="M17.98.91h-1.83c-1.16 0-1.83.67-1.83 1.83v.3l.46-.45.46.46.46-.46.45.46.46-.46.46.46.45-.46.46.46.46-.46.45.46.46-.46.46.46v-.3c0-1.17-.67-1.84-1.83-1.84z" fill="#bf6c35"/><path d="M16.15 4.8a.69.69 0 1 0 0-1.37.69.69 0 0 0 0 1.37z" fill="#fff"/><path d="M16.15 4.5a.38.38 0 1 0 0-.77.38.38 0 0 0 0 .77z" fill="#9fa628"/><path d="M17.98 4.8a.69.69 0 1 0 0-1.37.69.69 0 0 0 0 1.37z" fill="#fff"/><path d="M17.98 4.5a.38.38 0 1 0 0-.77.38.38 0 0 0 0 .77z" fill="#9fa628"/><path d="m7.31 6.7-.3-.6-.3.6.3.16zm-.91 0-.3-.6-.3.6.3.16zm-.91 0-.3-.6-.31.6.3.16.3-.16zm-.92 0-.3-.6-.3.6.3.16zm-.91 0-.3-.6-.31.6.3.16.3-.16zm3.2-1.21-.3.6-.31-.6.3-.16.3.16zm-.92 0-.3.6-.3-.6.3-.16zm-.91 0-.3.6-.31-.6.3-.16.3.16zm-.92 0-.3.6-.3-.6.3-.16z" fill="#d5d3dd"/><g fill="#e2cbb5"><path d="M2.13 11.84.3 10.82 2.13 9.8z"/><path d="M2.13 10.32.3 9.3l1.83-1.03z"/><path d="M2.13 8.8.3 7.76l1.83-1.02v2.04z"/><path d="M2.13 7.27.3 6.25l1.83-1.02z"/></g><path d="M3.35 6.7a.6.6 0 1 1 0-1.21h3.96V2.74c0-.51-.13-.93-.38-1.23l.4-.4a.8.8 0 0 0 .44.1.15.15 0 1 0 0-.3c-.29 0-.46-.16-.46-.45a.15.15 0 1 0-.3 0c0 .15.04.3.11.43l-.4.4A1.9 1.9 0 0 0 5.5.92H3.66c-.52 0-.93.14-1.24.39l-.4-.4a.8.8 0 0 0 .11-.44.15.15 0 1 0-.3 0c0 .29-.17.45-.46.45a.15.15 0 1 0 0 .3.8.8 0 0 0 .43-.1l.41.4c-.25.3-.38.72-.38 1.23v9.45a.3.3 0 0 1-.3.3H.3v3.27l1.13-1.13h.4a2.13 2.13 0 0 0 1.93-1.22H6.7a.3.3 0 0 1 .31.3v1.22h3.26L9.14 13.8v-.4a2.14 2.14 0 0 0-1.83-2.1v-.02h3.94l-.88-.71 1.08-.36-1.08-.36.88-.7H7.31v-.31h3.94l-.88-.7 1.08-.37-1.08-.36.88-.7h-7.9z" fill="#9fa628"/><path d="M3.66 4.8a.69.69 0 1 0 0-1.37.69.69 0 0 0 0 1.37z" fill="#fff"/><path d="M3.66 4.5a.38.38 0 1 0 0-.77.38.38 0 0 0 0 .77z" fill="#bf6c35"/><path d="M5.49 4.8a.69.69 0 1 0 0-1.37.69.69 0 0 0 0 1.37z" fill="#fff"/><path d="M5.49 4.5a.38.38 0 1 0 0-.77.38.38 0 0 0 0 .77z" fill="#bf6c35"/></g></svg>