<svg xmlns="http://www.w3.org/2000/svg" width="24" height="23" fill="none"><path d="M23.75 20.25H2.25V.75A.25.25 0 0 0 2 .5H.25A.25.25 0 0 0 0 .75v21.5c0 .14.11.25.25.25h23.5c.14 0 .25-.11.25-.25V20.5a.25.25 0 0 0-.25-.25ZM5 17.75h1.75c.14 0 .25-.11.25-.25V13a.25.25 0 0 0-.25-.25H5a.25.25 0 0 0-.25.25v4.5c0 .14.11.25.25.25Zm4.75 0h1.75c.14 0 .25-.11.25-.25v-10a.25.25 0 0 0-.25-.25H9.75a.25.25 0 0 0-.25.25v10c0 .14.11.25.25.25Zm4.75 0h1.75c.14 0 .25-.11.25-.25V9.94a.25.25 0 0 0-.25-.25H14.5a.25.25 0 0 0-.25.25v7.56c0 .14.11.25.25.25Zm4.75 0H21c.14 0 .25-.11.25-.25V5a.25.25 0 0 0-.25-.25h-1.75A.25.25 0 0 0 19 5v12.5c0 .14.11.25.25.25Z" fill="#1E1E1E" fill-opacity=".12"/></svg>