<svg xmlns="http://www.w3.org/2000/svg" width="20" height="20" fill="none"><path d="M17.09 6.86c0 1.6-.38 3.16-1.14 4.66a9.68 9.68 0 0 1-3.31 3.8 9.29 9.29 0 0 1-5.35 1.57c-1.92 0-3.69-.52-5.29-1.58.24.03.52.03.81.03 1.6 0 3.04-.5 4.32-1.5-.76 0-1.44-.22-2-.69a3.59 3.59 0 0 1-1.2-1.72c.21.03.43.03.62.03.3 0 .63-.03.92-.11A3.4 3.4 0 0 1 3.5 10.1a3.36 3.36 0 0 1-.78-2.22v-.05c.48.28 1 .44 1.54.47a3.58 3.58 0 0 1-1.11-1.28 3.7 3.7 0 0 1-.49-1.69c0-.6.16-1.19.49-1.77a9.84 9.84 0 0 0 7.11 3.69c-.05-.28-.05-.53-.05-.8a3.67 3.67 0 0 1 1.7-3.09 3.06 3.06 0 0 1 1.72-.47c.51 0 .97.11 1.38.3.4.2.81.48 1.14.81a7.54 7.54 0 0 0 2.2-.83 3.45 3.45 0 0 1-1.52 1.94c.65-.08 1.3-.28 1.98-.58a8 8 0 0 1-1.74 1.86c0 .13.03.27.03.47Z" fill="#1D9BF0"/></svg>